<svg width="200" height="38" viewBox="0 0 200 38" fill="none" xmlns="http://www.w3.org/2000/svg">
<path d="M12.1479 31.3148C10.2934 31.3148 8.66197 30.9512 7.25352 30.224C5.86854 29.4734 4.78873 28.4765 4.01408 27.2333C3.23943 25.9901 2.66432 24.653 2.28873 23.2222C1.93662 21.7913 1.76056 20.2666 1.76056 18.6481C1.76056 17.1703 1.94835 15.7277 2.32394 14.3203C2.69953 12.8895 3.27464 11.5407 4.04929 10.274C4.82394 8.9839 5.90375 7.9518 7.28873 7.17772C8.69718 6.38019 10.3169 5.98143 12.1479 5.98143C14.3779 5.98143 16.2793 6.55612 17.8521 7.7055C19.4249 8.85488 20.5399 10.2506 21.1972 11.8925L16.4084 14.0388C15.7277 13.0302 15.0704 12.2913 14.4366 11.8222C13.8263 11.353 13.0634 11.1185 12.1479 11.1185C11.2793 11.1185 10.5164 11.353 9.85915 11.8222C9.20187 12.2678 8.69718 12.8777 8.34507 13.6518C7.99295 14.4024 7.73474 15.1999 7.57042 16.0444C7.4061 16.8654 7.32394 17.7333 7.32394 18.6481C7.32394 19.8913 7.47652 21.0641 7.78169 22.1666C8.11033 23.2691 8.65023 24.2191 9.40141 25.0166C10.1761 25.7907 11.0915 26.1777 12.1479 26.1777C13.6737 26.1777 15.0704 25.1222 16.338 23.0111L21.2324 24.8407C19.2371 29.1567 16.2089 31.3148 12.1479 31.3148Z" fill="black"/>
<path d="M35.1678 30.9629V29.6259C34.088 30.7987 32.5974 31.3851 30.696 31.3851C28.7007 31.3851 27.0692 30.8808 25.8016 29.8722C24.5575 28.8401 23.9354 27.374 23.9354 25.474C23.9354 23.6209 24.6631 22.2018 26.1185 21.2166C27.5739 20.208 29.2758 19.7037 31.2241 19.7037C32.9143 19.7037 34.2288 19.9148 35.1678 20.337V19.3518C35.1678 18.5308 34.9096 17.9092 34.3932 17.487C33.8767 17.0413 33.1608 16.8185 32.2453 16.8185C30.2969 16.8185 28.372 17.4518 26.4706 18.7185L24.8861 14.8129C27.0927 13.3117 29.6631 12.5611 32.5974 12.5611C37.6913 12.5611 40.2382 14.9067 40.2382 19.5981V30.9629H35.1678ZM31.6819 27.0925C32.9495 27.0925 34.1115 26.6703 35.1678 25.8259V24.2074C34.2288 23.9259 33.2077 23.7851 32.1044 23.7851C29.9917 23.7851 28.9354 24.3598 28.9354 25.5092C28.9354 26.5648 29.8509 27.0925 31.6819 27.0925Z" fill="black"/>
<path d="M45.1763 30.9629V12.9833H50.282V14.6018C50.5167 14.1327 50.9392 13.6753 51.5496 13.2296C52.1599 12.7839 52.8759 12.5611 53.6975 12.5611C55.1059 12.5611 56.2914 13.0654 57.2538 14.074L56.5848 18.7185C55.5989 17.8975 54.5308 17.487 53.3806 17.487C51.3148 17.487 50.282 18.7302 50.282 21.2166V30.9629H45.1763Z" fill="black"/>
<path d="M60.3406 6.33328H69.4251C71.4908 6.33328 73.3218 6.68513 74.918 7.38884C76.5143 8.06908 77.7701 9.00735 78.6856 10.2036C79.6246 11.3765 80.3171 12.6783 80.7631 14.1092C81.2326 15.5401 81.4673 17.053 81.4673 18.6481C81.4673 19.8209 81.3382 20.9703 81.08 22.0962C80.8218 23.1987 80.3875 24.3012 79.7772 25.4037C79.1668 26.4827 78.4039 27.4327 77.4884 28.2537C76.5729 29.0512 75.411 29.708 74.0025 30.224C72.5941 30.7166 71.0213 30.9629 69.2842 30.9629H60.3406V6.33328ZM69.8476 25.8611C71.8664 25.8611 73.3805 25.1456 74.3899 23.7148C75.3992 22.2604 75.9039 20.5716 75.9039 18.6481C75.9039 16.7246 75.411 15.0358 74.4251 13.5814C73.4626 12.1271 72.0659 11.3999 70.2349 11.3999H65.6927V25.8611H69.8476Z" fill="black"/>
<path d="M92.9465 31.3851C90.2939 31.3851 88.2047 30.5524 86.6789 28.887C85.153 27.2216 84.3901 24.9111 84.3901 21.9555C84.3901 19.0703 85.153 16.7833 86.6789 15.0944C88.2282 13.4055 90.3174 12.5611 92.9465 12.5611C95.3408 12.5611 97.2892 13.2882 98.7915 14.7425C100.294 16.1969 101.045 18.308 101.045 21.0759C101.045 22.2253 100.998 23.1049 100.904 23.7148H89.3901C89.4371 24.8407 89.7892 25.6851 90.4465 26.2481C91.1037 26.7876 91.9371 27.0574 92.9465 27.0574C94.5897 27.0574 95.9394 26.424 96.9958 25.1574L99.9535 28.1129C98.146 30.2944 95.8103 31.3851 92.9465 31.3851ZM89.4253 19.8796H96.1507C95.8925 17.8858 94.754 16.8888 92.7352 16.8888C91.8197 16.8888 91.0685 17.1586 90.4817 17.6981C89.8948 18.2141 89.5427 18.9413 89.4253 19.8796Z" fill="black"/>
<path d="M115.459 30.9629V29.6259C114.379 30.7987 112.889 31.3851 110.987 31.3851C108.992 31.3851 107.361 30.8808 106.093 29.8722C104.849 28.8401 104.227 27.374 104.227 25.474C104.227 23.6209 104.954 22.2018 106.41 21.2166C107.865 20.208 109.567 19.7037 111.515 19.7037C113.206 19.7037 114.52 19.9148 115.459 20.337V19.3518C115.459 18.5308 115.201 17.9092 114.684 17.487C114.168 17.0413 113.452 16.8185 112.537 16.8185C110.588 16.8185 108.663 17.4518 106.762 18.7185L105.177 14.8129C107.384 13.3117 109.954 12.5611 112.889 12.5611C117.983 12.5611 120.53 14.9067 120.53 19.5981V30.9629H115.459ZM111.973 27.0925C113.241 27.0925 114.403 26.6703 115.459 25.8259V24.2074C114.52 23.9259 113.499 23.7851 112.396 23.7851C110.283 23.7851 109.227 24.3598 109.227 25.5092C109.227 26.5648 110.142 27.0925 111.973 27.0925Z" fill="black"/>
<path d="M125.644 30.9629V7.9518L130.749 5.5592V30.9629H125.644Z" fill="black"/>
<path d="M143.872 31.3851C141.22 31.3851 139.13 30.5524 137.605 28.887C136.079 27.2216 135.316 24.9111 135.316 21.9555C135.316 19.0703 136.079 16.7833 137.605 15.0944C139.154 13.4055 141.243 12.5611 143.872 12.5611C146.266 12.5611 148.215 13.2882 149.717 14.7425C151.22 16.1969 151.971 18.308 151.971 21.0759C151.971 22.2253 151.924 23.1049 151.83 23.7148H140.316C140.363 24.8407 140.715 25.6851 141.372 26.2481C142.029 26.7876 142.863 27.0574 143.872 27.0574C145.515 27.0574 146.865 26.424 147.921 25.1574L150.879 28.1129C149.072 30.2944 146.736 31.3851 143.872 31.3851ZM140.351 19.8796H147.076C146.818 17.8858 145.68 16.8888 143.661 16.8888C142.745 16.8888 141.994 17.1586 141.407 17.6981C140.82 18.2141 140.468 18.9413 140.351 19.8796Z" fill="black"/>
<path d="M156.209 30.9629V12.9833H161.314V14.6018C161.549 14.1327 161.972 13.6753 162.582 13.2296C163.192 12.7839 163.908 12.5611 164.73 12.5611C166.138 12.5611 167.324 13.0654 168.286 14.074L167.617 18.7185C166.631 17.8975 165.563 17.487 164.413 17.487C162.347 17.487 161.314 18.7302 161.314 21.2166V30.9629H156.209Z" fill="black"/>
<path d="M179.868 25.5528C179.184 25.5528 178.537 25.4675 177.927 25.2967C177.329 25.1137 176.767 24.8332 176.242 24.4551C175.717 24.0647 175.296 23.522 174.979 22.8267C174.674 22.1314 174.521 21.3203 174.521 20.3933V12.5259H177.304V20.3933C177.304 21.3081 177.506 21.9485 177.909 22.3144C178.324 22.6803 178.977 22.8633 179.868 22.8633C180.734 22.8633 181.375 22.6803 181.79 22.3144C182.217 21.9363 182.431 21.2959 182.431 20.3933V12.5259H185.214V20.3933C185.214 21.3081 185.062 22.1131 184.756 22.8084C184.451 23.4915 184.036 24.0282 183.511 24.4185C182.999 24.8088 182.437 25.0954 181.827 25.2784C181.217 25.4614 180.563 25.5528 179.868 25.5528Z" fill="#7572FF"/>
<path d="M196.212 25.3333L193.081 19.5151L190.646 22.5522V25.3333H187.862V12.5259H190.646V18.582L195.443 12.5259H198.793L194.967 17.1731L199.471 25.3333H196.212Z" fill="#7572FF"/>
</svg>
